<svg id="Layer_1" data-name="Layer 1" xmlns="http://www.w3.org/2000/svg" width="210.261" height="185.936" viewBox="0 0 210.261 185.936">
  <title>Artboard 90star-rate</title>
  <g>
    <g>
      <g>
        <path d="M21.971,184.582H1.354V124.749H21.971a4.078,4.078,0,0,1,4.078,4.078V180.5A4.078,4.078,0,0,1,21.971,184.582Z" fill="#fb8b75"/>
        <path d="M21.971,185.936H1.354A1.354,1.354,0,0,1,0,184.582V124.75A1.355,1.355,0,0,1,1.354,123.4H21.971a5.439,5.439,0,0,1,5.433,5.433V180.5A5.439,5.439,0,0,1,21.971,185.936ZM2.709,183.228H21.971A2.727,2.727,0,0,0,24.7,180.5V128.828a2.727,2.727,0,0,0-2.724-2.724H2.709Z" fill="#3b0e1e"/>
      </g>
      <g>
        <g>
          <path d="M97.018,144.252l-30.207-8.307c-9.628-3.673-20.118.885-30.186,3.081l-10.576,2.306v37.254l18.879-5.252A46.189,46.189,0,0,1,59.444,171.7l8.675.4c16.433.764,32.335,3.6,43.286-8.679l22.719-25.466a7.923,7.923,0,0,0,2.01-5.273h0a7.92,7.92,0,0,0-11.829-6.888Z" fill="#fcd36a"/>
          <path d="M26.049,179.941a1.354,1.354,0,0,1-1.354-1.355V141.332a1.356,1.356,0,0,1,1.066-1.324L36.336,137.7c2.18-.476,4.435-1.078,6.617-1.661,8.049-2.151,16.372-4.374,24.279-1.387l29.544,8.125,26.77-18.109a1.057,1.057,0,0,1,.091-.056,9.275,9.275,0,0,1,11.5,14.24l-22.72,25.467C102.387,175.561,88.659,174.7,74.13,173.8c-2.011-.126-4.038-.252-6.074-.348l-8.675-.4a44.851,44.851,0,0,0-14.089,1.591l-18.88,5.252A1.319,1.319,0,0,1,26.049,179.941ZM27.4,142.422V176.8l17.162-4.775a47.453,47.453,0,0,1,14.941-1.686l8.675.4c2.05.1,4.092.223,6.116.35,13.856.862,26.944,1.681,36.1-8.578l22.718-25.466a6.565,6.565,0,0,0-8.095-10.106L97.777,145.373a1.354,1.354,0,0,1-1.118.185L66.452,137.25a1.118,1.118,0,0,1-.124-.04c-7.1-2.711-15.021-.6-22.676,1.449-2.211.591-4.5,1.2-6.739,1.69Z" fill="#3b0e1e"/>
        </g>
        <g>
          <path d="M59.377,153.347l33.494,4.641a7.192,7.192,0,0,0,8.681-5.849h0a7.193,7.193,0,0,0-4.534-7.887l-30.207-8.307Z" fill="#fcd36a"/>
          <path d="M94.481,159.523a8.71,8.71,0,0,1-1.85-.2l-33.44-4.635a1.354,1.354,0,1,1,.372-2.682l33.494,4.641a1.12,1.12,0,0,1,.113.021,5.839,5.839,0,0,0,7.046-4.748,5.861,5.861,0,0,0-3.623-6.38L66.452,137.25a1.354,1.354,0,1,1,.718-2.611l30.207,8.307a1.124,1.124,0,0,1,.124.041,8.575,8.575,0,0,1,5.387,9.371,8.554,8.554,0,0,1-8.407,7.165Z" fill="#3b0e1e"/>
        </g>
      </g>
      <g>
        <circle cx="11.971" cy="134.459" r="4.497" fill="#fff"/>
        <path d="M11.971,140.31a5.852,5.852,0,1,1,5.851-5.851A5.859,5.859,0,0,1,11.971,140.31Zm0-8.994a3.143,3.143,0,1,0,3.143,3.143A3.146,3.146,0,0,0,11.971,131.316Z" fill="#3b0e1e"/>
      </g>
    </g>
    <g>
      <g>
        <rect x="29.399" y="109.049" width="179.508" height="10.927" rx="5.463" ry="5.463" fill="#86c8de"/>
        <path d="M203.444,121.33H34.862a6.818,6.818,0,0,1,0-13.636H203.444a6.818,6.818,0,0,1,0,13.636ZM34.862,110.4a4.109,4.109,0,0,0,0,8.218H203.444a4.109,4.109,0,0,0,0-8.218Z" fill="#3b0e1e"/>
      </g>
      <g>
        <path d="M201.492,109.049H36.813v-.781a82.34,82.34,0,0,1,82.34-82.339h0a82.339,82.339,0,0,1,82.339,82.339Z" fill="#86c8de"/>
        <path d="M201.493,110.4H36.813a1.354,1.354,0,0,1-1.354-1.354v-.781a83.694,83.694,0,0,1,167.388,0v.781A1.354,1.354,0,0,1,201.493,110.4ZM38.17,107.694H200.136a80.985,80.985,0,0,0-161.966,0Z" fill="#3b0e1e"/>
      </g>
      <path d="M57.315,91.061a1.337,1.337,0,0,1-.377-.054,1.354,1.354,0,0,1-.924-1.677,70.632,70.632,0,0,1,46.742-47.84,1.354,1.354,0,0,1,.813,2.584A67.927,67.927,0,0,0,58.616,90.083,1.357,1.357,0,0,1,57.315,91.061Z" fill="#3b0e1e"/>
      <g>
        <path d="M109.05,26.546a83.175,83.175,0,0,1,10.1-.617h0a83.187,83.187,0,0,1,10.1.617,14.629,14.629,0,1,0-20.206,0Zm10.1-19.352a8.789,8.789,0,1,1-8.79,8.789A8.789,8.789,0,0,1,119.153,7.194Z" fill="#86c8de"/>
        <path d="M129.256,27.9a1.522,1.522,0,0,1-.165-.01,81.9,81.9,0,0,0-19.877,0,1.369,1.369,0,0,1-1.1-.366,15.841,15.841,0,0,1-4.944-11.542,15.983,15.983,0,1,1,31.966,0,15.841,15.841,0,0,1-4.944,11.542A1.354,1.354,0,0,1,129.256,27.9Zm-10.1-25.192a13.288,13.288,0,0,0-13.274,13.274,13.14,13.14,0,0,0,3.664,9.142q2.23-.256,4.48-.394a10.144,10.144,0,1,1,10.26,0c1.5.092,2.992.223,4.479.394a13.141,13.141,0,0,0,3.665-9.142A13.288,13.288,0,0,0,119.153,2.709Zm0,5.839a7.435,7.435,0,1,0,7.435,7.435A7.443,7.443,0,0,0,119.153,8.548Z" fill="#3b0e1e"/>
      </g>
    </g>
  </g>
</svg>
